<svg width="789" height="428" viewBox="0 0 789 428" fill="none" xmlns="http://www.w3.org/2000/svg">
<path d="M1692 232C1692 699.233 1313.23 1078 846 1078C378.767 1078 0 699.233 0 232C0 -235.233 378.767 -614 846 -614C1313.23 -614 1692 -235.233 1692 232Z" fill="#F1CB80"/>
<path d="M482.42 63C451.605 63 440.699 73.7151 427.413 90.2773L336 209.805L244.414 90.0614C231.294 73.7151 220.388 63 189.583 63C159.036 63 136 83.3168 136 110.254V396.202C136 420.385 157.031 436 189.583 436C237.102 436 244.198 411.258 244.198 396.509L244.11 267.516C246.755 271.168 249.641 275.147 252.764 279.47C269.592 302.725 283.171 319.843 296.783 334.993C309.136 348.721 320.5 354.311 336 354.311C351.908 354.311 362.536 349.082 375.225 334.984C388.867 319.802 402.436 302.683 419.234 279.47C422.357 275.147 425.242 271.168 427.888 267.526V382.403L427.804 396.509C427.804 411.258 434.901 436 482.42 436C514.966 436 536 420.385 536 396.202V110.254C536 82.8725 513.466 63 482.42 63Z" fill="white"/>
</svg>
